<?xml version="1.0" encoding="UTF-8"?>
<svg version="1.1" xmlns="http://www.w3.org/2000/svg" width="500" height="500">
<path d="M0 0 C5.61 0 11.22 0 17 0 C17 5.94 17 11.88 17 18 C20.3 18 23.6 18 27 18 C27 22.29 27 26.58 27 31 C23.7 31 20.4 31 17 31 C17.14120016 33.58366245 17.28778333 36.16682885 17.4375 38.75 C17.49647461 39.84441406 17.49647461 39.84441406 17.55664062 40.9609375 C17.76147098 44.4272973 18.0852002 47.65333026 19 51 C20.7015625 50.9690625 20.7015625 50.9690625 22.4375 50.9375 C26 51 26 51 27 52 C27.61875 51.195625 28.2375 50.39125 28.875 49.5625 C31.10154316 46.8775509 31.82658276 46.14537913 35.20703125 45.7265625 C42.29132231 45.45041322 42.29132231 45.45041322 46.0625 48.375 C49.10803998 52.50121546 49.43068946 54.83172649 49 60 C46.89157198 63.99095303 45.23030134 66.38955741 41 68 C38.74609375 68.046875 38.74609375 68.046875 36.4375 67.75 C35.67308594 67.66234375 34.90867187 67.5746875 34.12109375 67.484375 C32 67 32 67 29 65 C27.35698742 65.73767912 25.71560892 66.4793918 24.0859375 67.24609375 C18.58871139 69.23291892 12.83049502 68.69471834 7.5625 66.3125 C3.63688116 64.07268118 1.78518108 61.52763304 0.43969727 57.19628906 C-0.09220428 54.53943937 -0.11207016 52.06919071 -0.09765625 49.359375 C-0.09443359 48.28945313 -0.09121094 47.21953125 -0.08789062 46.1171875 C-0.07951172 45.00601563 -0.07113281 43.89484375 -0.0625 42.75 C-0.05798828 41.62335938 -0.05347656 40.49671875 -0.04882812 39.3359375 C-0.03705397 36.55723783 -0.0206084 33.77864591 0 31 C-0.62648438 31.15597656 -1.25296875 31.31195313 -1.8984375 31.47265625 C-3.12433594 31.76462891 -3.12433594 31.76462891 -4.375 32.0625 C-5.59316406 32.35833984 -5.59316406 32.35833984 -6.8359375 32.66015625 C-9 33 -9 33 -11 32 C-16.81345947 31.46634487 -16.81345947 31.46634487 -21.9375 33.875 C-25.09695358 37.1301946 -25.33421243 39.42413238 -25.29296875 43.9609375 C-24.83745033 47.13134567 -23.24684343 48.8192402 -21 51 C-16.77971101 53.1101445 -11.42006486 52.24871787 -7 51 C-5.99491199 52.78881736 -4.99607264 54.58114696 -4 56.375 C-3.443125 57.37273437 -2.88625 58.37046875 -2.3125 59.3984375 C-1 62 -1 62 -1 64 C-10.31275672 68.03492748 -18.46191173 69.8993041 -28.25 66.375 C-33.7945266 63.90291808 -37.75963365 60.24036635 -42 56 C-42.3403125 56.45890625 -42.680625 56.9178125 -43.03125 57.390625 C-47.93605686 63.59990177 -53.16662669 66.74381608 -61 68 C-70.46209755 68.74549859 -78.07259108 67.76547108 -85.4375 61.5 C-87.72552511 59.39224353 -89.25454858 57.61817714 -91 55 C-91.33 58.63 -91.66 62.26 -92 66 C-97.94 66 -103.88 66 -110 66 C-110.01417969 63.89238281 -110.02835938 61.78476562 -110.04296875 59.61328125 C-110.07362588 57.56111893 -110.11270425 55.5092767 -110.15258789 53.45727539 C-110.17571503 52.03649298 -110.19015126 50.61554042 -110.19555664 49.19458008 C-110.20488661 47.14557534 -110.24595166 45.0992265 -110.29296875 43.05078125 C-110.31653442 41.20480347 -110.31653442 41.20480347 -110.34057617 39.3215332 C-111.17345816 35.1262872 -112.66416736 33.59993744 -116 31 C-119.80736908 30.92229859 -121.42785787 31.53325247 -124.375 33.9375 C-126.20629074 35.82420657 -126.20629074 35.82420657 -126 38 C-121.05 38.66 -116.1 39.32 -111 40 C-111 40.66 -111 41.32 -111 42 C-118.425 42.99 -118.425 42.99 -126 44 C-126.33 51.26 -126.66 58.52 -127 66 C-132.94 66 -138.88 66 -145 66 C-145 69.3 -145 72.6 -145 76 C-145.99 76 -146.98 76 -148 76 C-148 73.03 -148 70.06 -148 67 C-153.28 66.67 -158.56 66.34 -164 66 C-164 58.74 -164 51.48 -164 44 C-168.95 43.34 -173.9 42.68 -179 42 C-179 41.34 -179 40.68 -179 40 C-174.71 39.34 -170.42 38.68 -166 38 C-165.56470692 34.10610269 -165.56470692 34.10610269 -167.5625 32.1875 C-171.05683333 30.48513248 -173.29294168 31.05638515 -177 32 C-179.58455285 33.89533875 -179.96275506 34.88826517 -181 38 C-181.15070797 40.13661258 -181.2485966 42.27712124 -181.31640625 44.41796875 C-181.35830078 45.67158203 -181.40019531 46.92519531 -181.44335938 48.21679688 C-181.48267578 49.52712891 -181.52199219 50.83746094 -181.5625 52.1875 C-181.60570992 53.52279978 -181.649325 54.85808652 -181.69335938 56.19335938 C-181.79956434 59.46211234 -181.90029785 62.73104223 -182 66 C-187.61 66 -193.22 66 -199 66 C-199.33 61.38 -199.66 56.76 -200 52 C-200.495 52.845625 -200.99 53.69125 -201.5 54.5625 C-205.96987208 61.15790566 -211.51410605 65.64458754 -219.296875 67.56640625 C-228.89102229 69.10535184 -238.5967058 68.79232631 -246.73828125 63.078125 C-253.18902443 57.6636083 -256.3457555 53.48500334 -257.3359375 45.18359375 C-257.77986096 36.90759219 -255.91828115 30.40224937 -250.35546875 24.15234375 C-243.26268461 17.63594839 -234.85120541 15.63065201 -225.42578125 15.7890625 C-217.40766095 16.48629035 -210.79582406 19.42264381 -205 25 C-203.13442506 27.26047766 -201.58481842 29.52372123 -200 32 C-199.67 27.38 -199.34 22.76 -199 18 C-193.39 18 -187.78 18 -182 18 C-181.505 19.485 -181.505 19.485 -181 21 C-180.0925 20.360625 -179.185 19.72125 -178.25 19.0625 C-173.35239983 15.95440758 -169.81562949 15.5384421 -164 16 C-158.46244452 17.58439973 -153.49402986 19.32689363 -149 23 C-148.1679418 17.27959989 -147.87963336 11.77759884 -148 6 C-147.01 6 -146.02 6 -145 6 C-145 9.96 -145 13.92 -145 18 C-139.06 18 -133.12 18 -127 18 C-126.67 18.66 -126.34 19.32 -126 20 C-125.2575 19.525625 -124.515 19.05125 -123.75 18.5625 C-118.5988501 15.63571028 -113.60648922 15.20204855 -107.7578125 16.49609375 C-102.03371708 18.20175855 -96.97852288 20.39519127 -93.96875 25.87890625 C-93.23731952 27.55510111 -92.60867147 29.27543084 -92 31 C-91.68289063 30.49210937 -91.36578125 29.98421875 -91.0390625 29.4609375 C-86.69759325 23.0566707 -81.07252485 18.26813121 -73.421875 16.35546875 C-64.76489872 15.08484804 -56.50009672 16.41682552 -49.125 21.3125 C-45.93786268 23.78384998 -44.01767693 26.52959567 -42 30 C-41.01 28.4221875 -41.01 28.4221875 -40 26.8125 C-35.59101017 20.65984187 -29.37503303 17.42325199 -22 16 C-14.55711538 15.31002845 -7.32134912 16.76693067 0 18 C0 12.06 0 6.12 0 0 Z M-75 33 C-75 33.66 -75 34.32 -75 35 C-69.39 35 -63.78 35 -58 35 C-59.47639003 29.93991361 -59.47639003 29.93991361 -63 28 C-68.94997805 27.22870655 -71.3008772 28.29202553 -75 33 Z M-236.75 35.3125 C-238.65874226 37.88930205 -238.87714637 39.80580564 -239 43 C-237.77536383 47.25020788 -236.85026974 49.38162201 -233.25 52 C-229.25707191 53.22859326 -227.01147822 53.16697548 -223 52 C-219.48961349 49.40536649 -218.22188185 47.76271886 -217 43.5625 C-217 39.38189691 -217.59584531 37.41234859 -220 34 C-226.72899831 29.7048947 -230.67062886 30.75297165 -236.75 35.3125 Z M-76 45 C-74.34661472 49.87859961 -74.34661472 49.87859961 -71 53 C-66.35919611 54.06510253 -64.12840299 54.44710307 -59.6875 52.6875 C-57.77400933 51.48600586 -55.87996138 50.25330759 -54 49 C-52.95199219 49.55880859 -52.95199219 49.55880859 -51.8828125 50.12890625 C-50.97273438 50.60199219 -50.06265625 51.07507813 -49.125 51.5625 C-48.22007812 52.03816406 -47.31515625 52.51382813 -46.3828125 53.00390625 C-45.59648437 53.33261719 -44.81015625 53.66132813 -44 54 C-43.34 53.67 -42.68 53.34 -42 53 C-42.99 50.36 -43.98 47.72 -45 45 C-55.23 45 -65.46 45 -76 45 Z " fill="#699992" transform="translate(383,299)"/>
<path d="M0 0 C2.625 2.75 2.625 2.75 4 5 C3.50371094 5.32871094 3.00742188 5.65742187 2.49609375 5.99609375 C-2.40584093 9.42837819 -5.79089326 13.0664283 -9.32421875 17.875 C-11.58945984 20.74747354 -14.09018706 22.79989753 -17 25 C-16.60167969 25.556875 -16.20335937 26.11375 -15.79296875 26.6875 C-7.62976023 38.44569817 -7.62976023 38.44569817 -8.3125 45 C-8.539375 45.66 -8.76625 46.32 -9 47 C-10.65 47.33 -12.3 47.66 -14 48 C-14.24234375 47.41992188 -14.4846875 46.83984375 -14.734375 46.2421875 C-18.72698221 36.93634146 -22.74298638 30.64719807 -32.25 26.625 C-39.97203638 25.33799394 -46.80231796 25.93602322 -53.28125 30.54296875 C-58.20620718 34.71798927 -61.61185187 39.29999054 -62.30078125 45.8671875 C-62.32486429 52.04850118 -61.97688864 56.54237082 -59 62 C-57.35 62 -55.7 62 -54 62 C-54.04640625 61.34773438 -54.0928125 60.69546875 -54.140625 60.0234375 C-54.38752138 54.04501793 -54.13469029 50.63892081 -50 46 C-47.77063793 43.90789343 -45.49922044 41.88294865 -43.18359375 39.88671875 C-39.90703141 37.05562821 -36.86801647 34.18950405 -34.3125 30.6875 C-33.879375 30.130625 -33.44625 29.57375 -33 29 C-32.34 29 -31.68 29 -31 29 C-26.57081978 34.67488716 -24.67146819 39.89180797 -25.1875 47.0625 C-26.23599549 55.0166037 -29.82308164 59.42283276 -35.81591797 64.55517578 C-38.38171322 66.25251273 -40.50264145 66.79344627 -43.5078125 67.4296875 C-45.11269531 67.78740234 -45.11269531 67.78740234 -46.75 68.15234375 C-48.97599207 68.628974 -51.20254544 69.10299129 -53.4296875 69.57421875 C-61.49242943 71.37772681 -69.44971054 73.53846777 -75.5 79.4375 C-78.50309535 84.56778789 -79.61467132 89.05817729 -79 95 C-77.09455833 100.77045688 -74.53135431 104.17547865 -69 107 C-68.01 107 -67.02 107 -66 107 C-66.23976562 106.45472656 -66.47953125 105.90945312 -66.7265625 105.34765625 C-68.71253511 100.2963781 -69.4925026 96.48982397 -67.9921875 91.2109375 C-65.68802369 86.07646224 -62.14204314 82.14242301 -57.1875 79.5 C-49.73638585 78.33119778 -43.20871037 78.86408582 -36 81 C-35.91363281 80.41992188 -35.82726562 79.83984375 -35.73828125 79.2421875 C-35.59777344 78.46101563 -35.45726562 77.67984375 -35.3125 76.875 C-35.18488281 76.10929687 -35.05726563 75.34359375 -34.92578125 74.5546875 C-33.30487914 70.0818184 -30.93866232 67.0929108 -26.83032227 64.77685547 C-24.28627758 63.61205097 -21.72312157 62.53848783 -19.125 61.5 C-12.37254079 58.77707332 -7.3114199 56.03644176 -2 51 C1.09301711 56.71910536 0.6723823 62.63981233 0 69 C-1.95137715 75.12022834 -5.0932569 79.82926836 -10 84 C-10.804375 84.721875 -11.60875 85.44375 -12.4375 86.1875 C-19.24673044 91.00378495 -26.99032466 90.60810984 -35 90 C-37.8731291 89.32787982 -40.64613539 88.48870796 -43.46484375 87.62109375 C-47.49726503 86.6331816 -51.04720369 86.72464889 -55 88 C-57.99828256 90.01925152 -59.59926592 91.36063329 -60.47265625 94.93359375 C-60.7689105 98.95201682 -60.21933505 100.68389948 -57.875 104.0625 C-55.19711015 106.29037893 -55.19711015 106.29037893 -52.2578125 105.8359375 C-48.5450284 104.88325669 -45.35597336 103.36138965 -42 101.5625 C-35.5910171 98.16909748 -30.17684304 95.70982855 -22.8125 95.8125 C-21.78769531 95.81894531 -20.76289063 95.82539063 -19.70703125 95.83203125 C-17 96 -17 96 -14 97 C-13.85304688 96.40832031 -13.70609375 95.81664062 -13.5546875 95.20703125 C-11.8787516 89.30272833 -10.27132944 86.26822425 -5 83 C-2.1875 82.625 -2.1875 82.625 0 83 C1 84 1 84 1.375 86.3125 C1 89 1 89 -1.4375 90.875 C-4.28733142 92.84721441 -4.28733142 92.84721441 -5.0625 96.375 C-4.9841529 100.9191319 -3.79788437 102.46583027 -1 106 C7.29888655 116.64529792 7.40761844 127.89395169 6.19140625 140.93359375 C5.97785506 144.3547709 6.26879325 147.4621562 6.734375 150.84375 C8.20287593 162.76452226 7.23040991 177.06047447 0 187 C-6.15818651 193.21093329 -13.22201966 196.09447904 -21.875 196.4375 C-28.44879448 196.23854531 -34.94592432 195.05407568 -39.75390625 190.24609375 C-40.28886719 189.62863281 -40.82382813 189.01117188 -41.375 188.375 C-44.36368158 185.02598092 -46.50903014 184.49882639 -50.9375 184 C-57.43059102 183.25142309 -60.81704259 180.93777679 -65 176 C-69.00416361 170.61940514 -68.48362352 164.44521347 -68 158 C-67.67 157.01 -67.34 156.02 -67 155 C-59.48590495 154.5491543 -53.21570376 154.34544974 -47 159 C-41.4423638 164.43413318 -39.40992563 170.180111 -38.3125 177.6875 C-37.74847042 180.5027856 -37.34147349 181.68747752 -35.203125 183.64453125 C-29.30053806 187.38211824 -23.96833339 188.86263934 -17 188 C-14.10678123 186.90668796 -11.68893157 185.56446928 -9 184 C-9.33 183.67 -9.66 183.34 -10 183 C-11.010625 183.04125 -12.02125 183.0825 -13.0625 183.125 C-19.3674027 182.92484436 -24.91698966 180.95177985 -29.6796875 176.64453125 C-33.20421695 172.25451084 -34.72919501 166.92948556 -35.5 161.4375 C-34.42871484 154.0724145 -31.64541599 148.73907904 -25.75 144.15234375 C-23.59896162 142.73592339 -21.4641377 141.74670839 -19 141 C-18.7525 142.155 -18.505 143.31 -18.25 144.5 C-17.50467311 147.59472688 -16.51009574 149.96813865 -14.875 152.6875 C-12.00687612 158.08128521 -12.3454312 164.05560194 -13 170 C-14.0234375 172.89453125 -14.0234375 172.89453125 -15 175 C-13.783125 174.773125 -12.56625 174.54625 -11.3125 174.3125 C-10.28576172 174.12107422 -10.28576172 174.12107422 -9.23828125 173.92578125 C-5.77235071 172.49222883 -4.23302963 171.04924046 -2 168 C-1.28835966 164.3798837 -1.34720457 160.8652085 -1.4375 157.1875 C-1.42106445 155.74793945 -1.42106445 155.74793945 -1.40429688 154.27929688 C-1.46711806 148.14376066 -2.27949354 143.02897291 -6 138 C-11.79929507 134.13380328 -18.20341812 134.23418796 -25 135 C-31.86339712 136.70317683 -37.10578513 140.34141004 -42.76171875 144.44921875 C-48.10776567 148.1531989 -53.66734638 148.8043081 -60 148 C-68.56665089 145.81249129 -74.08905855 141.46344355 -78.875 134.125 C-81.05762576 128.06215068 -81.4548984 122.30455974 -80 116 C-79.34 116.268125 -78.68 116.53625 -78 116.8125 C-77.01 117.204375 -76.02 117.59625 -75 118 C-73.824375 118.474375 -72.64875 118.94875 -71.4375 119.4375 C-67.98401922 120.75871802 -64.55173548 121.54447496 -60.9375 122.3125 C-53.75655651 124.05113953 -49.68081199 127.34715927 -45.5625 133.375 C-45.046875 134.24125 -44.53125 135.1075 -44 136 C-43.52691406 135.61328125 -43.05382812 135.2265625 -42.56640625 134.828125 C-37.66095713 130.96496429 -32.80389455 128.28393999 -27 126 C-27.74056641 125.20335937 -27.74056641 125.20335937 -28.49609375 124.390625 C-29.13675781 123.68421875 -29.77742188 122.9778125 -30.4375 122.25 C-31.39462891 121.20585937 -31.39462891 121.20585937 -32.37109375 120.140625 C-34.02161275 117.97159763 -34.78551209 116.7058475 -35 114 C-34.01 112.515 -34.01 112.515 -33 111 C-29.86039462 111.31664396 -28.38860405 111.58621642 -26.19140625 113.92578125 C-25.65386719 114.71339844 -25.11632812 115.50101562 -24.5625 116.3125 C-19.48616314 123.18941788 -13.07829888 126.05420903 -5.51171875 129.73046875 C-3 131 -3 131 -2 132 C-1.62586952 124.14326002 -2.60278263 117.99536228 -6.6875 111.1875 C-11.16493883 106.95208489 -16.80116845 104.24795326 -23 104 C-30.41202202 104.40633013 -36.25716796 107.44286068 -42.55834961 111.07983398 C-51.2901964 116.07129294 -60.64914654 117.67217888 -70.55859375 115.41796875 C-77.79420319 112.67169758 -82.9086997 106.92118805 -86.5 100.1875 C-87.91850227 91.14454802 -87.78861865 82.97676473 -82.81640625 75.1328125 C-78.88875886 69.94787289 -73.88896227 67.52550358 -68 65 C-68.2165625 64.21496094 -68.433125 63.42992187 -68.65625 62.62109375 C-71.58231059 51.58063364 -71.45299204 43.67660999 -67 33 C-63.03623053 26.52338993 -56.94264377 21.95816996 -50 19 C-48.04951471 18.69475164 -46.08968623 18.44384904 -44.125 18.25 C-41.36872429 17.98287757 -41.36872429 17.98287757 -39 17 C-37.3966428 14.57714912 -36.64438765 12.31407157 -35.8046875 9.5390625 C-34.12955135 4.25343872 -30.80982806 1.22761908 -25.9375 -1.3125 C-16.94546051 -5.53252646 -8.62539601 -4.76987447 0 0 Z M-25.80078125 7.55078125 C-29.13790353 11.14276729 -30.75423052 13.96172557 -31 19 C-25.35327241 19.49532698 -22.19498305 19.21232548 -17.73828125 15.63671875 C-14.10457776 12.21532153 -10.24871671 8.49743342 -8 4 C-14.9067416 2.64331861 -20.26132115 2.78035682 -25.80078125 7.55078125 Z M-39.4375 45.75 C-39.94087891 46.1934375 -40.44425781 46.636875 -40.96289062 47.09375 C-43.63440492 49.50627287 -45.77441533 51.57706531 -47 55 C-47.16750414 57.66709069 -47.16750414 57.66709069 -47 60 C-41.55466487 59.61104749 -38.87313039 57.7851047 -35 54 C-33.12350175 50.98374946 -32.77125397 48.77736507 -32.875 45.25 C-32.90207031 44.05117187 -32.90207031 44.05117187 -32.9296875 42.828125 C-32.95289063 42.22484375 -32.97609375 41.6215625 -33 41 C-35.31792031 41 -37.72588135 44.20149622 -39.4375 45.75 Z M-24.08984375 71.61328125 C-27.29743601 75.15025952 -28.7618786 78.11851132 -29 83 C-22.93782902 82.73057018 -18.74257771 82.11023401 -14 78 C-9.20785603 72.75654916 -9.20785603 72.75654916 -8 66 C-13.45180845 66 -19.80796222 68.30782878 -24.08984375 71.61328125 Z M-72 128 C-70.72472262 133.48369275 -68.56426545 135.77816556 -64 139 C-60.22648674 140.98109446 -57.23632506 141.19703837 -53 141 C-52.67 140.01 -52.34 139.02 -52 138 C-54.05601531 134.52950799 -56.85588805 131.68028278 -60.3125 129.625 C-64.17535907 128.72666068 -68.05165969 128.32687785 -72 128 Z M-24 152 C-27.09612357 155.83919322 -27.44753692 159.08613261 -27.3046875 163.83984375 C-26.89612957 166.73641474 -25.77682232 168.70493784 -24 171 C-23.01 170.67 -22.02 170.34 -21 170 C-19.08319426 166.16638852 -19.49885959 161.71902814 -20.671875 157.6953125 C-21.39574442 155.77637564 -22.19209989 153.88510027 -23 152 C-23.33 152 -23.66 152 -24 152 Z M-61 162 C-60.74340908 167.9370657 -60.74340908 167.9370657 -57.6875 172.875 C-53.59000066 176.1148832 -51.27322718 177.29295707 -46 177 C-46.93543758 170.97162452 -48.24814376 167.88469067 -53.11328125 164.12109375 C-55.68571159 162.59254818 -58.03273359 162.1447447 -61 162 Z " fill="#699992" transform="translate(239,88)"/>
<path d="M0 0 C6.38931255 4.17762744 10.42629084 10.53757267 12 18 C12.66644531 18.06316406 13.33289063 18.12632813 14.01953125 18.19140625 C23.8737913 19.50071353 31.51097896 23.65675479 38 31.25 C42.69763254 37.85146923 44.8486959 45.93738893 44 54 C43.11391864 58.0331979 42.09803028 62.01964025 41 66 C41.97839844 66.41958984 41.97839844 66.41958984 42.9765625 66.84765625 C50.57326336 70.33227862 56.46493066 74.68375361 59.52734375 82.7890625 C61.13910757 90.32838749 61.29470377 98.6721029 57.1953125 105.39453125 C52.9175492 111.1401545 47.78994525 114.73668492 41 117 C29.64061422 117.98426496 21.62823893 115.4245538 11.65307617 110.26342773 C3.91899419 106.26763926 -1.41312562 103.88116665 -10.1875 106.1875 C-16.00727625 108.18387041 -19.3735345 110.50207481 -22.25 116 C-24.30488377 120.31188726 -25.13280807 123.96905109 -25.0625 128.75 C-25.04896484 129.94882812 -25.04896484 129.94882812 -25.03515625 131.171875 C-25.02355469 131.77515625 -25.01195312 132.3784375 -25 133 C-24.53851563 132.69707031 -24.07703125 132.39414063 -23.6015625 132.08203125 C-19.78425318 129.63020214 -16.00529439 127.50866456 -11.875 125.625 C-7.00211142 123.25218022 -4.13053713 120.36002201 -1 116 C-0.38125 115.195625 0.2375 114.39125 0.875 113.5625 C1.24625 113.046875 1.6175 112.53125 2 112 C3.65 112.33 5.3 112.66 7 113 C7.75 114.625 7.75 114.625 8 117 C5.79970902 120.91162841 3.18996383 123.88390902 0 127 C1.21236328 127.58007812 1.21236328 127.58007812 2.44921875 128.171875 C3.51785156 128.69265625 4.58648437 129.2134375 5.6875 129.75 C6.74324219 130.26046875 7.79898438 130.7709375 8.88671875 131.296875 C11.90003083 132.94531172 14.39287648 134.77499662 17 137 C17.43570313 136.39671875 17.87140625 135.7934375 18.3203125 135.171875 C19.21363281 133.97304688 19.21363281 133.97304688 20.125 132.75 C20.99511719 131.56664062 20.99511719 131.56664062 21.8828125 130.359375 C26.55615654 125.15144179 31.44811962 123.31472393 38.0625 121.9375 C42.87901648 120.91337533 46.82719107 119.70275514 51 117 C51.66 117 52.32 117 53 117 C54.3579903 124.46894663 53.90455746 130.40250258 50.3125 137.1875 C44.97854999 143.6747365 39.29263585 148.20514073 30.7734375 149.28125 C22.83448233 149.60862959 17.35023424 147.08574167 11 142.5 C2.90788606 136.68302448 -3.94094448 134.81181626 -14 136 C-17.11817312 136.83816494 -19.65935028 137.7495922 -22 140 C-25.37801301 145.93307621 -25.51792064 151.39580152 -25.5 158.125 C-25.52835937 159.10082031 -25.55671875 160.07664063 -25.5859375 161.08203125 C-25.59876722 165.78412362 -25.5703692 168.21882077 -22.73828125 172.09765625 C-19.05398071 174.65722025 -16.37173603 175.18493057 -12 176 C-12.32097656 175.30261719 -12.64195312 174.60523438 -12.97265625 173.88671875 C-15.08737024 167.94461367 -15.15813176 161.04946925 -12.9140625 155.140625 C-12.03576743 153.46526445 -11.12566761 151.80606424 -10.1796875 150.16796875 C-8.72681474 147.49795424 -8.23817982 145.01694435 -8 142 C-0.55423228 145.20938264 4.15497811 148.74842782 7.4375 156.3125 C8.56359856 163.6947017 7.92903425 170.01651768 3.59375 176.2421875 C-0.04332603 180.25366842 -4.66175652 183.02386405 -10 184 C-11.58211573 184.06548492 -13.16670081 184.08578381 -14.75 184.0625 C-15.54921875 184.05347656 -16.3484375 184.04445313 -17.171875 184.03515625 C-18.07679688 184.01775391 -18.07679688 184.01775391 -19 184 C-12.87755111 188.21768701 -8.40182616 190.02991771 -1 189 C3.96419381 187.1684812 8.02528831 185.46206754 11 181 C11.32506653 179.28020356 11.58968384 177.5485072 11.8125 175.8125 C13.05543642 168.57478563 15.67657685 163.47665756 21.625 159.0625 C26.14270678 156.30167919 28.98599404 155.88156983 34.1875 155.9375 C35.27417969 155.94652344 36.36085938 155.95554688 37.48046875 155.96484375 C38.31191406 155.97644531 39.14335937 155.98804688 40 156 C41.82768377 161.48305131 42.16358753 167.93053635 40.09375 173.390625 C37.60005251 177.57875796 34.45320518 181.83649951 30 184 C28.0305092 184.351107 26.04886251 184.63723092 24.0625 184.875 C18.43398198 185.59500722 16.3846856 187.05538698 12.75390625 191.24609375 C7.99924573 196.00075427 1.50792102 197.24101983 -5 197.5 C-13.51329852 197.18266625 -21.11933952 194.29093912 -27 188 C-34.8428152 176.72731855 -34.78096322 161.94949052 -33.5 148.75 C-33.02820483 143.85591148 -33.02690988 139.07584717 -33.13427734 134.16967773 C-33.36726727 121.93556891 -31.94892642 114.57695792 -24.28125 104.875 C-22.23184453 101.87587004 -21.79659366 99.59351196 -22 96 C-24.2504197 93.08209475 -24.2504197 93.08209475 -27 91 C-28 90 -28 90 -28.125 87.5 C-28 85 -28 85 -27 84 C-23.38669548 83.38057637 -22.03135912 83.98055734 -18.875 85.9375 C-15.20912281 89.20655543 -14.15367868 93.35492531 -13 98 C-11.515 97.505 -11.515 97.505 -10 97 C0.6996399 95.81115112 9.78789021 98.76829545 18.9375 104.25 C22.19110355 106.10920203 24.24223763 107.08169049 28 107 C30.90922988 105.03943204 32.6143643 103.54565275 33.484375 100.05859375 C33.74852184 96.19177758 33.23016425 94.3489587 31.0625 91.0625 C26.98940952 88.31939825 23.87886127 87.70315821 19 88 C17.25721065 88.42696996 15.52742777 88.90963563 13.8125 89.4375 C5.72453245 91.88771177 -3.13362537 92.58777917 -11.0625 89.25 C-12.39537517 88.53683801 -13.71162249 87.79072096 -15 87 C-15.886875 86.46375 -16.77375 85.9275 -17.6875 85.375 C-23.93219072 78.96153386 -27.14089658 71.94511211 -27.1875 63.0625 C-27.20167969 61.83660156 -27.21585937 60.61070312 -27.23046875 59.34765625 C-27.01676797 56.24356188 -26.63998182 54.58637449 -25 52 C-24.5359375 52.42410156 -24.071875 52.84820312 -23.59375 53.28515625 C-18.04640013 57.99419392 -12.37263878 60.84746798 -5.67382812 63.51391602 C-0.63203142 65.55461397 3.65537822 67.52651238 6.36328125 72.5078125 C6.67652344 73.37148437 6.98976563 74.23515625 7.3125 75.125 C7.63863281 75.99382812 7.96476562 76.86265625 8.30078125 77.7578125 C9 80 9 80 9 82 C10.11375 81.67 11.2275 81.34 12.375 81 C19.94197001 79.13839145 27.14316839 78.91227346 34 83 C38.04132696 86.69599417 40.99362695 90.52085781 42 96 C41.97989677 101.08611756 41.01486021 104.80541188 38 109 C44.71074195 106.87493172 47.81998837 105.03302152 51.25 98.6875 C52.77090219 93.23760049 52.65639547 88.84583751 50.3125 83.75 C46.37417544 76.77276064 40.27304797 74.52445635 33 72 C28.35753323 70.80493391 23.65655207 69.91069524 18.94726562 69.02148438 C11.91277978 67.5655664 6.97213489 65.591885 2.2578125 59.89453125 C-1.16227991 53.60863726 -2.96470295 47.66273093 -1.484375 40.5078125 C-0.25701651 36.5254259 1.15150378 33.11978157 4 30 C7.40942246 31.13647415 7.67702716 31.68645038 9.5625 34.5625 C12.05907932 38.06021388 14.71268116 40.51676218 18.125 43.125 C25.00874222 48.47441413 25.00874222 48.47441413 27 53 C27.29380648 56.36357759 27.23941987 59.63482074 27 63 C28.65 63 30.3 63 32 63 C35.65831777 56.2930841 36.42640679 49.08581946 34.34375 41.66015625 C31.40726466 35.0657215 26.35876628 30.67914508 19.6875 28.0625 C13.19408953 26.20723987 6.93089677 26.92531738 0.75 29.5625 C-6.64145587 33.7052918 -10.0171709 41.42010487 -13 49 C-14.65 48.67 -16.3 48.34 -18 48 C-19.41605925 44.34184694 -18.85794738 42.09509687 -17.375 38.625 C-15.34035329 34.37785285 -12.85946843 30.7331949 -10 27 C-11.0209375 26.01 -11.0209375 26.01 -12.0625 25 C-14.31610226 22.75278189 -16.41737546 20.40618328 -18.5 18 C-21.21615639 14.86552018 -24.02560083 11.89401 -27 9 C-28.33333333 7.66666667 -29.66666667 6.33333333 -31 5 C-21.74150166 -3.56411096 -11.58839241 -5.32032142 0 0 Z M-19 6 C-18.50628906 6.48210937 -18.01257813 6.96421875 -17.50390625 7.4609375 C-16.86324219 8.09257813 -16.22257812 8.72421875 -15.5625 9.375 C-14.92441406 10.00148438 -14.28632813 10.62796875 -13.62890625 11.2734375 C-12 13 -12 13 -11 15 C-10.34 15 -9.68 15 -9 15 C-9 15.66 -9 16.32 -9 17 C-4.70614007 20.4887612 -1.28129105 20.26854022 4 20 C3.75419886 14.96107659 2.13099331 12.15254561 -1.1875 8.546875 C-4.9042213 5.37484562 -9.02751314 4.21916521 -13.8125 3.6875 C-16.28845415 3.88069602 -16.28845415 3.88069602 -19 6 Z M6 42 C5.62766184 46.65422701 5.53492011 50.05195253 7.625 54.3125 C10.21053144 57.23823295 12.56797519 59.14098656 16 61 C17.32 61 18.64 61 20 61 C19.87510981 55.00527098 17.99723467 52.13716602 13.921875 47.80078125 C11.43568128 45.47123795 8.9371212 43.71929046 6 42 Z M-19 67 C-18.86278134 72.48874623 -16.56671524 75.37816039 -12.96484375 79.23046875 C-9.17597506 82.64271034 -5.71362135 83.90652974 -0.5625 84.1875 C0.283125 84.125625 1.12875 84.06375 2 84 C0.90517041 78.12773221 0.04975241 74.63582174 -5 71 C-11.79624908 68.10805511 -11.79624908 68.10805511 -19 67 Z M27.3125 135.3671875 C25.8056038 137.24183813 25.31767479 138.62736642 25 141 C25.982992 142.21620026 25.982992 142.21620026 27.85546875 142.01953125 C33.2825842 141.53772703 36.65084932 140.52074103 41 137 C41.598125 136.525625 42.19625 136.05125 42.8125 135.5625 C44.39621959 133.47865843 44.65380469 131.56184528 45 129 C37.85667457 129 32.68363695 130.61770992 27.3125 135.3671875 Z M-4 153 C-6.43845081 158.68971855 -7.52502314 162.80472699 -7 169 C-6.34 169.99 -5.68 170.98 -5 172 C-3.00016466 171.20882096 -3.00016466 171.20882096 -1 170 C0.71005023 164.86984932 0.87607779 159.86642661 -1.4375 154.9375 C-1.953125 154.298125 -2.46875 153.65875 -3 153 C-3.33 153 -3.66 153 -4 153 Z M24 167 C20.56260513 170.53029744 19.45579932 173.10015733 19 178 C24.4146739 177.56682609 27.80729382 176.51017262 32 173 C33.91631921 169.60288868 34.22083696 166.86464681 34 163 C29.17582974 163 27.76546728 164.0974523 24 167 Z " fill="#699992" transform="translate(288,87)"/>
<path d="M0 0 C2.73955391 2.63628913 4.71455017 5.49661159 6.76171875 8.6953125 C7.09171875 4.0753125 7.42171875 -0.5446875 7.76171875 -5.3046875 C13.37171875 -5.3046875 18.98171875 -5.3046875 24.76171875 -5.3046875 C25.25671875 -3.8196875 25.25671875 -3.8196875 25.76171875 -2.3046875 C26.66921875 -2.9440625 27.57671875 -3.5834375 28.51171875 -4.2421875 C33.40931892 -7.35027992 36.94608926 -7.7662454 42.76171875 -7.3046875 C53.78579763 -4.19019249 53.78579763 -4.19019249 56.76171875 -0.3046875 C56.87766703 4.79703669 54.63064613 7.52615117 51.4296875 11.1796875 C49.0498845 13.34213144 46.96450145 14.73176046 43.69921875 14.6328125 C41.76171875 13.6953125 41.76171875 13.6953125 40.38671875 11.1953125 C38.9546027 8.4332084 38.9546027 8.4332084 35.88671875 7.6953125 C32.15990888 7.6953125 30.6455984 8.37218723 27.76171875 10.6953125 C25.52260193 14.12215182 25.45770528 17.17580622 25.34765625 21.2109375 C25.30898437 22.46132813 25.2703125 23.71171875 25.23046875 25 C25.19953125 26.30195313 25.16859375 27.60390625 25.13671875 28.9453125 C25.09804687 30.26273437 25.059375 31.58015625 25.01953125 32.9375 C24.92525956 36.18987328 24.84240026 39.44257371 24.76171875 42.6953125 C19.15171875 42.6953125 13.54171875 42.6953125 7.76171875 42.6953125 C7.43171875 38.0753125 7.10171875 33.4553125 6.76171875 28.6953125 C6.26671875 29.5409375 5.77171875 30.3865625 5.26171875 31.2578125 C0.79184667 37.85321816 -4.7523873 42.33990004 -12.53515625 44.26171875 C-22.12930354 45.80066434 -31.83498705 45.48763881 -39.9765625 39.7734375 C-46.42730568 34.3589208 -49.58403675 30.18031584 -50.57421875 21.87890625 C-51.01814221 13.60290469 -49.1565624 7.09756187 -43.59375 0.84765625 C-31.4549503 -10.30469472 -12.60911295 -10.17936502 0 0 Z M-29.98828125 12.0078125 C-31.89702351 14.58461455 -32.11542762 16.50111814 -32.23828125 19.6953125 C-31.01364508 23.94552038 -30.08855099 26.07693451 -26.48828125 28.6953125 C-22.49535316 29.92390576 -20.24975947 29.86228798 -16.23828125 28.6953125 C-12.72789474 26.10067899 -11.4601631 24.45803136 -10.23828125 20.2578125 C-10.23828125 16.07720941 -10.83412656 14.10766109 -13.23828125 10.6953125 C-19.96727956 6.4002072 -23.90891011 7.44828415 -29.98828125 12.0078125 Z " fill="#699992" transform="translate(176.23828125,322.3046875)"/>
<path d="M0 0 C0.99 0 1.98 0 3 0 C3.14695312 1.80984375 3.14695312 1.80984375 3.296875 3.65625 C3.44707609 5.27091175 3.5981653 6.88549105 3.75 8.5 C3.811875 9.29148437 3.87375 10.08296875 3.9375 10.8984375 C4.57014165 17.33029429 6.11384128 23.14474234 10.82421875 27.8046875 C19.14157411 32.58237171 27.55137505 33.32888271 37 34 C37 34.66 37 35.32 37 36 C29.575 36.99 29.575 36.99 22 38 C21.67 45.26 21.34 52.52 21 60 C15.06 60 9.12 60 3 60 C3 63.3 3 66.6 3 70 C2.01 70 1.02 70 0 70 C0 67.03 0 64.06 0 61 C-5.28 60.67 -10.56 60.34 -16 60 C-16 52.74 -16 45.48 -16 38 C-20.95 37.34 -25.9 36.68 -31 36 C-31 35.34 -31 34.68 -31 34 C-30.16597656 33.89042969 -29.33195313 33.78085937 -28.47265625 33.66796875 C-16.53284976 32.24117686 -16.53284976 32.24117686 -6.1875 26.6875 C-0.84307327 19.26468509 0.61412441 8.90480393 0 0 Z " fill="#FDFDFD" transform="translate(235,305)"/>
<path d="M0 0 C-0.45445964 1.41791408 -0.91374944 2.83428046 -1.375 4.25 C-1.75785156 5.43335938 -1.75785156 5.43335938 -2.1484375 6.640625 C-2.95173667 8.86627958 -3.89711662 10.90931672 -5 13 C-5.99 12.7525 -5.99 12.7525 -7 12.5 C-10.72627059 11.8789549 -14.25193684 11.30339028 -18 12 C-20.69105198 14.17574416 -22.45532928 15.91065856 -24 19 C-24.12150428 23.49565838 -23.80266747 26.9715823 -21 30.5625 C-16.04631241 32.93614197 -11.16207157 32.72069052 -6 31 C-4.99491199 32.78881736 -3.99607264 34.58114696 -3 36.375 C-2.443125 37.37273437 -1.88625 38.37046875 -1.3125 39.3984375 C0 42 0 42 0 44 C-9.39721784 48.07152185 -17.53871178 49.92221427 -27.375 46.25 C-35.21005329 42.66614282 -39.43998554 37.84104452 -43 30 C-44.95517666 22.45210871 -44.0253915 15.81708398 -40.375 8.9375 C-29.64963433 -4.32808386 -15.50498341 -7.7524917 0 0 Z " fill="#699992" transform="translate(131,319)"/>
<path d="M0 0 C0 7.26 0 14.52 0 22 C-5.94 22 -11.88 22 -18 22 C-17.01899743 14.15197943 -16.22520872 9.06394829 -10.5 3.625 C-6.55331834 1.05965692 -4.82424362 0 0 0 Z " fill="#6A9A93" transform="translate(256,343)"/>
<path d="M0 0 C6.00371157 2.00123719 10.05387864 3.65143562 13.23046875 9.1171875 C15.30183165 13.55902707 16.17257633 17.03545799 17 22 C11.39 22 5.78 22 0 22 C0 14.74 0 7.48 0 0 Z " fill="#6B9A93" transform="translate(219,343)"/>
<path d="M0 0 C1.7325 0.1546875 1.7325 0.1546875 3.5 0.3125 C5.5 3.3125 5.5 3.3125 5.1875 6.4375 C4.5 9.3125 4.5 9.3125 3.5 10.3125 C0.0625 10.5 0.0625 10.5 -3.5 10.3125 C-5.5 8.3125 -5.5 8.3125 -5.75 5.3125 C-5.37833659 0.85253908 -4.40663794 0.39344982 0 0 Z " fill="#699992" transform="translate(191.5,91.6875)"/>
<path d="M0 0 C2.4375 0.75 2.4375 0.75 4.4375 2.75 C4.0625 6.375 4.0625 6.375 3.4375 9.75 C-2.94957103 11.07561852 -2.94957103 11.07561852 -5.5625 9.6875 C-7.07889353 6.74948754 -6.48543717 4.84843192 -5.5625 1.75 C-2.5625 -0.25 -2.5625 -0.25 0 0 Z " fill="#699992" transform="translate(338.5625,234.25)"/>
<path d="M0 0 C2.375 0.875 2.375 0.875 4.375 3.875 C4.0508631 7.19740324 3.76723697 8.48276303 1.375 10.875 C-2.25 10.5 -2.25 10.5 -5.625 9.875 C-5.955 7.565 -6.285 5.255 -6.625 2.875 C-4.28062075 0.70427848 -3.2584281 -0.15516324 0 0 Z " fill="#699992" transform="translate(163.625,234.125)"/>
<path d="M0 0 C2.375 0.875 2.375 0.875 4.375 3.875 C4.0508631 7.19740324 3.76723697 8.48276303 1.375 10.875 C-2.25 10.5 -2.25 10.5 -5.625 9.875 C-5.955 7.565 -6.285 5.255 -6.625 2.875 C-4.28062075 0.70427848 -3.2584281 -0.15516324 0 0 Z " fill="#699992" transform="translate(341.625,143.125)"/>
<path d="M0 0 C2.4375 0.75 2.4375 0.75 4.4375 2.75 C4.0625 6.375 4.0625 6.375 3.4375 9.75 C-2.94957103 11.07561852 -2.94957103 11.07561852 -5.5625 9.6875 C-7.07889353 6.74948754 -6.48543717 4.84843192 -5.5625 1.75 C-2.5625 -0.25 -2.5625 -0.25 0 0 Z " fill="#699992" transform="translate(160.5625,143.25)"/>
<path d="M0 0 C3.375 -0.125 3.375 -0.125 7 0 C9 2 9 2 9.25 5 C9 8 9 8 7 10 C3.375 10.125 3.375 10.125 0 10 C-2.21538462 4.58461538 -2.21538462 4.58461538 -1.125 1.625 C-0.75375 1.08875 -0.3825 0.5525 0 0 Z " fill="#699992" transform="translate(297,207)"/>
<path d="M0 0 C1.670625 0.061875 1.670625 0.061875 3.375 0.125 C5.59038462 5.54038462 5.59038462 5.54038462 4.5 8.5 C4.12875 9.03625 3.7575 9.5725 3.375 10.125 C0 10.25 0 10.25 -3.625 10.125 C-5.625 8.125 -5.625 8.125 -5.875 5.125 C-5.4955869 0.57204274 -4.51633162 0.15573557 0 0 Z " fill="#699992" transform="translate(267.625,109.875)"/>
<path d="M0 0 C3.375 -0.125 3.375 -0.125 7 0 C9 2 9 2 9.25 5 C9 8 9 8 7 10 C3.375 10.125 3.375 10.125 0 10 C-2.21538462 4.58461538 -2.21538462 4.58461538 -1.125 1.625 C-0.75375 1.08875 -0.3825 0.5525 0 0 Z " fill="#699992" transform="translate(305,92)"/>
<path d="M0 0 C1.670625 0.061875 1.670625 0.061875 3.375 0.125 C4.5625 2.875 4.5625 2.875 5.375 6.125 C4.375 8.5 4.375 8.5 2.375 10.125 C-0.6875 10.5 -0.6875 10.5 -3.625 10.125 C-5.625 8.125 -5.625 8.125 -5.875 5.125 C-5.4955869 0.57204274 -4.51633162 0.15573557 0 0 Z " fill="#699992" transform="translate(199.625,206.875)"/>
<path d="M0 0 C3.375 -0.1875 3.375 -0.1875 7 0 C9.14915785 3.22373677 9.38286803 4.26703674 9 8 C7 10 7 10 3.375 10.125 C2.26125 10.08375 1.1475 10.0425 0 10 C-2.21538462 4.58461538 -2.21538462 4.58461538 -1.125 1.625 C-0.75375 1.08875 -0.3825 0.5525 0 0 Z " fill="#699992" transform="translate(229,110)"/>
<path d="M0 0 C3.0625 0.1875 3.0625 0.1875 5.0625 2.1875 C5.3125 5.1875 5.3125 5.1875 5.0625 8.1875 C3.0625 10.1875 3.0625 10.1875 0.125 10.5625 C-2.9375 10.1875 -2.9375 10.1875 -4.9375 8.5 C-5.9375 6.1875 -5.9375 6.1875 -5.1875 3.5 C-3.4133785 0.21787522 -3.4133785 0.21787522 0 0 Z " fill="#699992" transform="translate(302.9375,235.8125)"/>
<path d="M0 0 C3.0625 0.375 3.0625 0.375 5.0625 2.0625 C6.0625 4.375 6.0625 4.375 5.3125 7.0625 C4.0625 9.375 4.0625 9.375 3.0625 10.375 C0.125 10.5625 0.125 10.5625 -2.9375 10.375 C-4.9375 8.375 -4.9375 8.375 -5.1875 5.375 C-4.8467171 1.28560516 -4.06103243 0.51842967 0 0 Z " fill="#699992" transform="translate(196.9375,235.625)"/>
</svg>
